<svg xmlns="http://www.w3.org/2000/svg" width="62" height="71" viewBox="0 0 62 71">
  <defs>
    <style>
      .cls-1 {
        fill: #24334a;
        fill-rule: evenodd;
      }
    </style>
  </defs>
  <path id="Shape_2_copy" data-name="Shape 2 copy" class="cls-1" d="M297.039,1562.13h7.153a1.185,1.185,0,1,0,0-2.37h-7.153A1.185,1.185,0,1,0,297.039,1562.13Zm35.764-23.67H297.039a1.185,1.185,0,1,0,0,2.37h34.572v53.26a3.657,3.657,0,0,1-3.576,3.55h-50.07a3.657,3.657,0,0,1-3.576-3.55v-54.35a6.645,6.645,0,0,0,2.384.97v53.38a1.192,1.192,0,0,0,2.384,0v-54.45a1.192,1.192,0,0,0-1.186-1.18,3.4,3.4,0,0,1-3.583-3.55v-1.18a2.378,2.378,0,0,1,2.385-2.37H332.8a1.185,1.185,0,1,0,0-2.37h-56.03a4.754,4.754,0,0,0-4.769,4.73v60.37a6.02,6.02,0,0,0,5.961,5.92h50.07a6.019,6.019,0,0,0,5.96-5.92v-54.45A1.187,1.187,0,0,0,332.8,1538.46Zm-1.192-3.55a1.187,1.187,0,0,0-1.192-1.18H292.271a1.188,1.188,0,0,0-1.193,1.18v11.34l-2.733-2.71a1.2,1.2,0,0,0-1.686,0l-2.733,2.71v-11.34a1.187,1.187,0,0,0-1.192-1.18h-4.769a1.18,1.18,0,1,0,0,2.36h3.576v13.02a1.191,1.191,0,0,0,2.035.84l3.926-3.9,3.926,3.9a1.193,1.193,0,0,0,1.3.26,1.2,1.2,0,0,0,.735-1.1v-13.02h36.957A1.187,1.187,0,0,0,331.611,1534.91Zm-42.917,18.94v18.93a1.189,1.189,0,0,0,1.192,1.19h26.227a1.189,1.189,0,0,0,1.192-1.19v-18.93a1.189,1.189,0,0,0-1.192-1.19H289.886A1.189,1.189,0,0,0,288.694,1553.85Zm2.384,1.18h23.843v16.57H291.078v-16.57Zm17.882,9.47H297.039a1.185,1.185,0,1,0,0,2.37H308.96A1.185,1.185,0,1,0,308.96,1564.5Z" transform="translate(-272 -1529)"/>
</svg>
