<svg xmlns="http://www.w3.org/2000/svg" width="60" height="76.82" viewBox="0 0 60 76.82">
  <defs>
    <style>
      .cls-1 {
        fill: #24334a;
        fill-rule: evenodd;
      }
    </style>
  </defs>
  <path class="cls-1" d="M945,1527.4H933a5.984,5.984,0,0,0-4.8-2.4h-3.059a4.773,4.773,0,0,0-8.283,0H913.8a5.984,5.984,0,0,0-4.8,2.4H897a6.006,6.006,0,0,0-6,6v60a6.006,6.006,0,0,0,6,6h48a6.006,6.006,0,0,0,6-6v-60A6.006,6.006,0,0,0,945,1527.4Zm-34.8,3.6a3.6,3.6,0,0,1,3.6-3.6h3.82a1.2,1.2,0,0,0,1.131-.8,2.381,2.381,0,0,1,4.5,0,1.2,1.2,0,0,0,1.13.8H928.2a3.6,3.6,0,0,1,3.6,3.6v3.6H910.2V1531Zm38.4,62.4a3.607,3.607,0,0,1-3.6,3.6H897a3.607,3.607,0,0,1-3.6-3.6v-60a3.6,3.6,0,0,1,3.6-3.6h10.921a6.03,6.03,0,0,0-.121,1.2v4.8a1.2,1.2,0,0,0,1.2,1.2h24a1.2,1.2,0,0,0,1.2-1.2V1531a6.03,6.03,0,0,0-.121-1.2H945a3.6,3.6,0,0,1,3.6,3.6v60Zm-3.6-61.2h-7.2a1.2,1.2,0,0,0,0,2.4h6v57.6H898.2v-57.6h6a1.2,1.2,0,0,0,0-2.4H897a1.2,1.2,0,0,0-1.2,1.2v60a1.2,1.2,0,0,0,1.2,1.2h48a1.2,1.2,0,0,0,1.2-1.2v-60A1.2,1.2,0,0,0,945,1532.2Zm-24-4.8a1.22,1.22,0,0,0-.849.35,1.2,1.2,0,0,0-.351.85,1.2,1.2,0,0,0,2.049.85,1.217,1.217,0,0,0,.351-0.85,1.2,1.2,0,0,0-.351-0.85A1.225,1.225,0,0,0,921,1527.4Zm-18.849,23.15a1.2,1.2,0,0,0,0,1.7l3.6,3.6a1.2,1.2,0,0,0,1.7,0l6-6a1.2,1.2,0,1,0-1.7-1.7l-5.151,5.15-2.752-2.75A1.2,1.2,0,0,0,902.151,1550.55Zm11.3,10.8a1.2,1.2,0,0,0-1.7,0l-5.151,5.15-2.752-2.75a1.2,1.2,0,1,0-1.7,1.7l3.6,3.6a1.2,1.2,0,0,0,1.7,0l6-6A1.2,1.2,0,0,0,913.448,1561.35Zm-1.7,13.2-5.151,5.15-2.752-2.75a1.2,1.2,0,0,0-1.7,1.7l3.6,3.6a1.2,1.2,0,0,0,1.7,0l6-6A1.2,1.2,0,0,0,911.751,1574.55Zm6.849-21.95H939a1.2,1.2,0,0,0,0-2.4H918.6A1.2,1.2,0,0,0,918.6,1552.6Zm0,13.2H939a1.2,1.2,0,1,0,0-2.4H918.6A1.2,1.2,0,1,0,918.6,1565.8Zm0,13.2H939a1.2,1.2,0,0,0,0-2.4H918.6A1.2,1.2,0,0,0,918.6,1579Z" transform="translate(-891 -1522.59)"/>
</svg>
