<svg xmlns="http://www.w3.org/2000/svg" width="68" height="78" viewBox="0 0 68 78">
  <defs>
    <style>
      .cls-1 {
        fill: #24334a;
        fill-rule: evenodd;
      }
    </style>
  </defs>
  <path class="cls-1" d="M154.923,1835.7a5.2,5.2,0,1,0,5.231,5.2A5.219,5.219,0,0,0,154.923,1835.7Zm0,7.8a2.6,2.6,0,1,1,2.615-2.6A2.613,2.613,0,0,1,154.923,1843.5Zm-3.923-65h5.231a1.3,1.3,0,1,0,0-2.6H151A1.3,1.3,0,1,0,151,1778.5Zm9.154,0h1.308a1.3,1.3,0,1,0,0-2.6h-1.308A1.3,1.3,0,1,0,160.154,1778.5ZM202,1787.6H178.462v-9.87A5.752,5.752,0,0,0,172.7,1772H139.76a5.751,5.751,0,0,0-5.76,5.73v66.54a5.751,5.751,0,0,0,5.76,5.73H172.7a5.752,5.752,0,0,0,5.762-5.73V1814.9H202v-27.3Zm-62.24-13H172.7a3.139,3.139,0,0,1,3.146,3.13v2.07H136.615v-2.07A3.139,3.139,0,0,1,139.76,1774.6Zm32.941,72.8H139.76a3.139,3.139,0,0,1-3.145-3.13v-9.87h39.231v9.87A3.139,3.139,0,0,1,172.7,1847.4Zm3.145-15.6H136.615v-49.4h39.231v5.2H152.308v27.3h5.23v9.1l12.2-9.1h6.1v16.9Zm23.539-19.5H168.872l-8.718,6.5v-6.5h-5.231v-22.1h44.462v22.1Zm-37.923-13h13.076a1.3,1.3,0,1,0,0-2.6H161.462A1.3,1.3,0,1,0,161.462,1799.3Zm-1.308,5.2a1.3,1.3,0,0,0,1.308,1.3h31.384a1.3,1.3,0,1,0,0-2.6H161.462A1.3,1.3,0,0,0,160.154,1804.5Z" transform="translate(-134 -1772)"/>
</svg>
