<svg xmlns="http://www.w3.org/2000/svg" width="76.812" height="76.82" viewBox="0 0 76.812 76.82">
  <defs>
    <style>
      .cls-1 {
        fill: #24334a;
        fill-rule: evenodd;
      }
    </style>
  </defs>
  <path class="cls-1" d="M955.4,1823a38.4,38.4,0,1,0-64.987,27.67l-0.041.03,1.141,1.01a38.236,38.236,0,0,0,8.807,5.87c0.132,0.07.268,0.13,0.4,0.19,0.4,0.18.8,0.37,1.2,0.54,0.25,0.11.5,0.21,0.756,0.31,0.293,0.12.586,0.24,0.882,0.35s0.61,0.22.916,0.32c0.252,0.09.5,0.18,0.758,0.26,0.33,0.11.664,0.21,1,.3l0.717,0.21c0.343,0.09.687,0.18,1.033,0.26,0.241,0.06.483,0.11,0.725,0.17,0.343,0.07.686,0.15,1.032,0.21,0.259,0.05.518,0.1,0.777,0.14,0.332,0.06.663,0.11,1,.16,0.293,0.04.587,0.08,0.881,0.11s0.61,0.08.917,0.11c0.363,0.03.728,0.06,1.093,0.08,0.245,0.02.488,0.04,0.735,0.05,0.618,0.03,1.239.05,1.861,0.05s1.24-.02,1.858-0.05c0.249-.01.5-0.03,0.742-0.05,0.359-.02.72-0.05,1.077-0.08,0.314-.03.624-0.07,0.935-0.11,0.285-.03.571-0.07,0.855-0.11,0.344-.05.686-0.1,1.026-0.16,0.245-.04.489-0.09,0.734-0.13,0.361-.07.72-0.15,1.078-0.23,0.221-.04.441-0.1,0.661-0.15,0.368-.09.734-0.18,1.1-0.28l0.628-.18q0.546-.15,1.085-0.33c0.213-.06.425-0.14,0.636-0.21,0.347-.12.694-0.24,1.037-0.37,0.24-.09.478-0.18,0.718-0.28,0.307-.12.614-0.24,0.917-0.37,0.341-.15.676-0.3,1.013-0.46,0.194-.09.394-0.17,0.587-0.27a38.382,38.382,0,0,0,8.727-5.8l1.143-1.01-0.039-.03A38.294,38.294,0,0,0,955.4,1823Zm-74.24,0a35.84,35.84,0,1,1,60.3,26.16,40.669,40.669,0,0,0-48.992-.07A35.726,35.726,0,0,1,881.16,1823Zm57.963,28.16c-0.583.46-1.176,0.91-1.784,1.33-0.161.11-.321,0.22-0.484,0.33-0.681.45-1.378,0.88-2.086,1.28-0.156.09-.31,0.19-0.467,0.27-0.765.42-1.545,0.82-2.336,1.18-0.137.06-.274,0.13-0.411,0.19q-1.251.555-2.537,1.02l-0.191.06a36.33,36.33,0,0,1-5.547,1.46l-0.333.06c-0.9.15-1.8,0.26-2.714,0.35l-0.434.03c-0.928.07-1.861,0.12-2.8,0.12s-1.879-.05-2.811-0.12l-0.436-.03c-0.911-.09-1.814-0.2-2.71-0.36l-0.366-.06c-0.932-.17-1.856-0.36-2.769-0.6a0.014,0.014,0,0,1-.015-0.01c-0.926-.24-1.84-0.53-2.742-0.84-0.076-.03-0.151-0.05-0.227-0.08-0.846-.3-1.678-0.64-2.5-1.01l-0.467-.21c-0.775-.36-1.538-0.74-2.286-1.16-0.181-.1-0.358-0.2-0.537-0.31-0.717-.41-1.423-0.84-2.112-1.31-0.166-.11-0.326-0.23-0.49-0.34-0.593-.41-1.171-0.85-1.741-1.3-0.127-.1-0.255-0.2-0.38-0.3a38.261,38.261,0,0,1,45.1.06Q939.318,1851.01,939.123,1851.16ZM917,1794.84a1.277,1.277,0,0,0,1.28-1.28V1791a1.28,1.28,0,0,0-2.56,0v2.56A1.277,1.277,0,0,0,917,1794.84ZM945.8,1823a1.277,1.277,0,0,0,1.28,1.28h2.56a1.28,1.28,0,1,0,0-2.56h-2.56A1.277,1.277,0,0,0,945.8,1823Zm-57.6,0a1.277,1.277,0,0,0-1.28-1.28h-2.56a1.28,1.28,0,1,0,0,2.56h2.56A1.277,1.277,0,0,0,888.2,1823Zm43.2-24.3a1.337,1.337,0,0,0,.639.17,1.279,1.279,0,0,0,1.109-.64l1.28-2.22a1.28,1.28,0,1,0-2.217-1.28l-1.28,2.22A1.283,1.283,0,0,0,931.4,1798.7Zm14.507,40.15-2.217-1.28a1.281,1.281,0,0,0-1.28,2.22l2.217,1.28a1.34,1.34,0,0,0,.639.17A1.281,1.281,0,0,0,945.907,1838.85Zm-57.815-30.42,2.217,1.28a1.337,1.337,0,0,0,.639.17,1.281,1.281,0,0,0,.641-2.39l-2.217-1.28A1.281,1.281,0,0,0,888.092,1808.43Zm12.753-10.24a1.281,1.281,0,0,0,1.11.64,1.248,1.248,0,0,0,.639-0.18,1.268,1.268,0,0,0,.468-1.74l-1.28-2.22a1.28,1.28,0,1,0-2.217,1.28Zm41.882,11.09a1.232,1.232,0,0,0,.638-0.17l2.216-1.28a1.281,1.281,0,0,0-1.28-2.22l-2.216,1.28A1.281,1.281,0,0,0,942.727,1809.28Zm-50.994,28.16a1.287,1.287,0,0,0-1.749-.47l-2.215,1.28a1.281,1.281,0,0,0,.641,2.39,1.236,1.236,0,0,0,.639-0.17l2.215-1.28A1.282,1.282,0,0,0,891.733,1837.44ZM917,1826.68a5.078,5.078,0,0,0,4.537-7.44l10.85-10.85a1.28,1.28,0,0,0-1.81-1.81l-10.736,10.73a5.282,5.282,0,0,0-6.46.63A5.12,5.12,0,0,0,917,1826.68Zm-1.81-6.93a2.56,2.56,0,0,1,4.37,1.81,2.524,2.524,0,0,1-.75,1.81,2.615,2.615,0,0,1-3.62,0,2.524,2.524,0,0,1-.75-1.81A2.559,2.559,0,0,1,915.19,1819.75Z" transform="translate(-878.594 -1784.59)"/>
</svg>
