<svg xmlns="http://www.w3.org/2000/svg" width="70" height="70" viewBox="0 0 70 70">
  <defs>
    <style>
      .cls-1 {
        fill: #24334a;
        fill-rule: evenodd;
      }
    </style>
  </defs>
  <path class="cls-1" d="M323.621,2023.84c-1.823-.98-13.16-7.08-19.39-10.99a5.785,5.785,0,0,0-8.462,0c-6.231,3.9-17.567,10.01-19.39,10.99H265.005v57.15h69.989v-57.15H323.621Zm-21.028-9.33a0.034,0.034,0,0,1,.011.02,3.587,3.587,0,0,1,.767,1.42c0.014,0.05.037,0.1,0.049,0.15a3.5,3.5,0,1,1-6.92.74,3.423,3.423,0,0,1,.081-0.74c0.012-.05.034-0.1,0.048-0.15a3.6,3.6,0,0,1,.766-1.42,0.029,0.029,0,0,1,.012-0.02A3.458,3.458,0,0,1,302.593,2014.51Zm-8.419,2.04c0,0.1-.007.19-0.007,0.29a5.833,5.833,0,0,0,11.665,0c0-.1,0-0.19-0.007-0.29,4.191,2.49,9.373,5.36,12.9,7.29H281.277C284.8,2021.91,289.983,2019.04,294.174,2016.55Zm-17.5,9.62h55.991V2032H267.338v-5.83h9.332Zm-9.332,52.49v-44.33h65.323v44.33H267.338Zm24.5-36.16a1.165,1.165,0,1,1-1.166,1.17A1.166,1.166,0,0,1,291.834,2042.5Zm8.166,0a1.165,1.165,0,1,1-1.167,1.17A1.166,1.166,0,0,1,300,2042.5Zm8.165,0a1.165,1.165,0,1,1-1.166,1.17A1.166,1.166,0,0,1,308.165,2042.5Zm8.165,0a1.165,1.165,0,1,1-1.166,1.17A1.166,1.166,0,0,1,316.33,2042.5Zm8.166,0a1.165,1.165,0,1,1-1.167,1.17A1.166,1.166,0,0,1,324.5,2042.5Zm-48.992,9.33a1.165,1.165,0,1,1-1.167,1.17A1.166,1.166,0,0,1,275.5,2051.83Zm8.165,0A1.165,1.165,0,1,1,282.5,2053,1.166,1.166,0,0,1,283.669,2051.83Zm8.165,0a1.165,1.165,0,1,1-1.166,1.17A1.166,1.166,0,0,1,291.834,2051.83Zm8.166,0a1.165,1.165,0,1,1-1.167,1.17A1.166,1.166,0,0,1,300,2051.83Zm8.165,0A1.165,1.165,0,1,1,307,2053,1.166,1.166,0,0,1,308.165,2051.83Zm8.165,0a1.165,1.165,0,1,1-1.166,1.17A1.166,1.166,0,0,1,316.33,2051.83Zm8.166,0a1.165,1.165,0,1,1-1.167,1.17A1.166,1.166,0,0,1,324.5,2051.83ZM275.5,2060a1.165,1.165,0,1,1-1.167,1.16A1.163,1.163,0,0,1,275.5,2060Zm8.165,0a1.165,1.165,0,1,1-1.166,1.16A1.164,1.164,0,0,1,283.669,2060Zm8.165,0a1.165,1.165,0,1,1-1.166,1.16A1.164,1.164,0,0,1,291.834,2060Zm8.166,0a1.165,1.165,0,1,1-1.167,1.16A1.163,1.163,0,0,1,300,2060Zm8.165,0a1.165,1.165,0,1,1-1.166,1.16A1.164,1.164,0,0,1,308.165,2060Zm8.165,0a1.165,1.165,0,1,1-1.166,1.16A1.164,1.164,0,0,1,316.33,2060Zm8.166,0a1.165,1.165,0,1,1-1.167,1.16A1.163,1.163,0,0,1,324.5,2060Zm-48.992,9.33a1.165,1.165,0,1,1-1.167,1.17A1.166,1.166,0,0,1,275.5,2069.33Zm8.165,0a1.165,1.165,0,1,1-1.166,1.17A1.166,1.166,0,0,1,283.669,2069.33Zm8.165,0a1.165,1.165,0,1,1-1.166,1.17A1.166,1.166,0,0,1,291.834,2069.33Zm8.166,0a1.165,1.165,0,1,1-1.167,1.17A1.166,1.166,0,0,1,300,2069.33Zm8.165,0A1.165,1.165,0,1,1,307,2070.5,1.166,1.166,0,0,1,308.165,2069.33Z" transform="translate(-265 -2011)"/>
</svg>
