<svg xmlns="http://www.w3.org/2000/svg" width="76.812" height="76.82" viewBox="0 0 76.812 76.82">
  <defs>
    <style>
      .cls-1 {
        fill: #24334a;
        fill-rule: evenodd;
      }
    </style>
  </defs>
  <path class="cls-1" d="M941.079,2073.64a9.813,9.813,0,0,0-7.738,4.38,9.811,9.811,0,0,0-7.738-4.38c-5.2,0-9.354,4.04-9.9,9.6a9.643,9.643,0,0,0,.306,3.69,15.252,15.252,0,0,0,4.943,7.86l11.339,9.71a1.6,1.6,0,0,0,2.094,0l11.341-9.71a15.236,15.236,0,0,0,4.942-7.86,9.688,9.688,0,0,0,.306-3.69C950.434,2077.68,946.279,2073.64,941.079,2073.64Zm6.948,12.64a12.505,12.505,0,0,1-4.072,6.44l-10.613,9.09-10.612-9.09a12.471,12.471,0,0,1-4.074-6.44,7.2,7.2,0,0,1-.264-2.58l0.023-.15c0.332-3.57,2.909-7.18,7.189-7.18,2.98,0,5.41,2.46,6.494,4.91l1.244,2.8,1.244-2.8c1.084-2.45,3.513-4.91,6.494-4.91,4.283,0,6.859,3.61,7.21,7.31A7.2,7.2,0,0,1,948.027,2086.28Zm-9.309-29.07a5.358,5.358,0,1,0-5.357,5.36A5.368,5.368,0,0,0,938.718,2057.21Zm-7.991,0a2.635,2.635,0,1,1,2.636,2.64A2.636,2.636,0,0,1,930.727,2057.21Zm6.541-17.61H918.2l-34.443,34.34,0.013,0.01-8.174,8.15,34.215,34.3,10.5-10.06-32.683-32.4,31.694-31.62h16.816l13.533,13.51v17.56H952.4V2054.7Zm-20.853,66.71-6.558,6.28-30.407-30.48,6.257-6.24Z" transform="translate(-875.594 -2039.59)"/>
</svg>
