<svg version="1.1" id="Capa_1" xmlns="http://www.w3.org/2000/svg" xmlns:xlink="http://www.w3.org/1999/xlink" x="0px" y="0px"
	 viewBox="0 0 370.531 370.531" style="enable-background:new 0 0 370.531 370.531;" xml:space="preserve">
  <defs>
    <style>
      .cls-1 {
        fill: #24334a;
        fill-rule: evenodd;
      }
    </style>
  </defs>
	<path class="cls-1" d="M370.531,127.509L185.265,78.933L0,127.509l73.995,19.398v73.088
		c0,22.764,69.944,28.838,111.264,28.838c17.035,0,38.928-1.038,58.792-3.843v46.607h11.934v-48.57
		c22.847-4.356,40.545-11.582,40.545-23.032v-73.088L370.531,127.509z M185.265,91.272l138.205,36.231l-73.088,19.16l-62.939-24.709
		l-4.356,11.104l47.723,18.736l-45.545,11.94L47.061,127.509L185.265,91.272z M185.265,236.9c-61.16,0-97.194-11.14-99.33-16.904
		v-69.962l99.33,26.039l58.792-15.412v72.223C228.477,235.247,208.745,236.9,185.265,236.9z M284.626,219.781
		c-1.104,3.049-11.069,7.435-28.641,11.009v-73.255l28.611-7.5L284.626,219.781z"/>
</svg>
